<?xml version="1.0" encoding="UTF-8" standalone="no"?>
<svg
  xmlns:dc="http://purl.org/dc/elements/1.1/"
  xmlns:cc="http://creativecommons.org/ns#"
  xmlns:rdf="http://www.w3.org/1999/02/22-rdf-syntax-ns#"
  xmlns:svg="http://www.w3.org/2000/svg"
  xmlns="http://www.w3.org/2000/svg"
  xmlns:sodipodi="http://sodipodi.sourceforge.net/DTD/sodipodi-0.dtd"
  xmlns:inkscape="http://www.inkscape.org/namespaces/inkscape"
   version="1.1"
   id="Capa_1"
   x="0px"
   y="0px"
   viewBox="0 0 261.501 261.501"
   style="enable-background:new 0 0 261.501 261.501;"
   xml:space="preserve"
   sodipodi:docname="binary.svg"
   inkscape:version="1.0.1 (c497b03c, 2020-09-10)">
  <metadata
   id="metadata888">
    <rdf:RDF>
      <cc:Work
       rdf:about="">
        <dc:format>image/svg+xml</dc:format>
        <dc:type
         rdf:resource="http://purl.org/dc/dcmitype/StillImage" />
      </cc:Work>
    </rdf:RDF>
  </metadata>
  <defs
   id="defs886" />
  <sodipodi:namedview
   pagecolor="#ffffff"
   bordercolor="#666666"
   borderopacity="1"
   objecttolerance="10"
   gridtolerance="10"
   guidetolerance="10"
   inkscape:pageopacity="0"
   inkscape:pageshadow="2"
   inkscape:window-width="1792"
   inkscape:window-height="1075"
   id="namedview884"
   showgrid="false"
   inkscape:zoom="3.4256146"
   inkscape:cx="130.7505"
   inkscape:cy="130.7505"
   inkscape:window-x="0"
   inkscape:window-y="23"
   inkscape:window-maximized="1"
   inkscape:current-layer="Capa_1" />
  <g
   id="g851"
   style="fill:#121212;fill-opacity:1">
    <path
   d="M37.984,161.696c0,4.142,3.358,7.5,7.5,7.5s7.5-3.358,7.5-7.5v-58.627c0-3.034-1.827-5.768-4.63-6.929   c-2.801-1.16-6.028-0.519-8.173,1.626L21.177,116.77c-2.929,2.929-2.929,7.678,0,10.606c2.929,2.929,7.678,2.929,10.606,0   l6.201-6.201V161.696z"
   id="path833"
   style="fill:#121212;fill-opacity:1" />
    <path
   d="M82.279,31.807l6.201-6.201v40.521c0,4.142,3.358,7.5,7.5,7.5s7.5-3.358,7.5-7.5V7.5c0-3.034-1.827-5.768-4.63-6.929   c-2.801-1.16-6.028-0.519-8.173,1.626L71.673,21.201c-2.929,2.929-2.929,7.678,0,10.606C74.602,34.736,79.351,34.736,82.279,31.807   z"
   id="path835"
   style="fill:#121212;fill-opacity:1" />
    <path
   d="M167.815,96.14c-2.801-1.16-6.028-0.519-8.173,1.626l-19.004,19.004c-2.929,2.929-2.929,7.678,0,10.606   c2.929,2.929,7.678,2.929,10.606,0l6.201-6.201v40.521c0,4.142,3.358,7.5,7.5,7.5s7.5-3.358,7.5-7.5v-58.627   C172.445,100.036,170.618,97.301,167.815,96.14z"
   id="path837"
   style="fill:#121212;fill-opacity:1" />
    <path
   d="M135.217,188.445c-2.801-1.16-6.028-0.519-8.173,1.626l-19.004,19.004c-2.929,2.929-2.929,7.678,0,10.606   c2.929,2.929,7.678,2.929,10.606,0l6.201-6.201v22.197c0,4.142,3.358,7.5,7.5,7.5s7.5-3.358,7.5-7.5v-40.303   C139.847,192.34,138.02,189.606,135.217,188.445z"
   id="path839"
   style="fill:#121212;fill-opacity:1" />
    <path
   d="M122.504,143.42v-22.074c0-14.213-11.563-25.776-25.776-25.776h-0.369c-14.213,0-25.776,11.563-25.776,25.776v22.074   c0,14.213,11.563,25.776,25.776,25.776h0.369C110.941,169.196,122.504,157.633,122.504,143.42z M107.504,143.42   c0,5.942-4.834,10.776-10.776,10.776h-0.369c-5.942,0-10.776-4.834-10.776-10.776v-22.074c0-5.942,4.834-10.776,10.776-10.776   h0.369c5.942,0,10.776,4.834,10.776,10.776V143.42z"
   id="path841"
   style="fill:#121212;fill-opacity:1" />
    <path
   d="M216.745,95.569h-0.369c-14.213,0-25.776,11.563-25.776,25.776v22.074c0,14.213,11.563,25.776,25.776,25.776h0.369   c14.213,0,25.776-11.563,25.776-25.776v-22.074C242.521,107.133,230.958,95.569,216.745,95.569z M227.521,143.42   c0,5.942-4.834,10.776-10.776,10.776h-0.369c-5.942,0-10.776-4.834-10.776-10.776v-22.074c0-5.942,4.834-10.776,10.776-10.776   h0.369c5.942,0,10.776,4.834,10.776,10.776V143.42z"
   id="path843"
   style="fill:#121212;fill-opacity:1" />
    <path
   d="M147.224,0h-0.369c-14.213,0-25.776,11.563-25.776,25.776v22.074c0,14.213,11.563,25.776,25.776,25.776h0.369   c4.142,0,7.5-3.358,7.5-7.5s-3.358-7.5-7.5-7.5h-0.369c-5.942,0-10.776-4.834-10.776-10.776V25.776   c0-5.942,4.834-10.776,10.776-10.776h0.369c5.942,0,10.776,4.834,10.776,10.776c0,4.142,3.358,7.5,7.5,7.5s7.5-3.358,7.5-7.5   C173.001,11.563,161.438,0,147.224,0z"
   id="path845"
   style="fill:#121212;fill-opacity:1" />
    <path
   d="M216.745,0h-0.369c-14.213,0-25.776,11.563-25.776,25.776v22.074c0,14.213,11.563,25.776,25.776,25.776h0.369   c14.213,0,25.776-11.563,25.776-25.776V25.776C242.521,11.563,230.958,0,216.745,0z M227.521,47.851   c0,5.942-4.834,10.776-10.776,10.776h-0.369c-5.942,0-10.776-4.834-10.776-10.776V25.776c0-5.942,4.834-10.776,10.776-10.776h0.369   c5.942,0,10.776,4.834,10.776,10.776V47.851z"
   id="path847"
   style="fill:#121212;fill-opacity:1" />
    <path
   d="M61.682,187.874h-0.369c-14.213,0-25.776,11.563-25.776,25.776v22.074c0,14.213,11.563,25.776,25.776,25.776h0.369   c14.213,0,25.776-11.563,25.776-25.776V213.65C87.459,199.438,75.896,187.874,61.682,187.874z M72.459,235.725   c0,5.942-4.834,10.776-10.776,10.776h-0.369c-5.942,0-10.776-4.834-10.776-10.776V213.65c0-5.942,4.834-10.776,10.776-10.776h0.369   c5.942,0,10.776,4.834,10.776,10.776V235.725z"
   id="path849"
   style="fill:#121212;fill-opacity:1" />
  </g>
  <g
   id="g853"
   style="fill:#121212;fill-opacity:1"></g>
  <g
   id="g855"
   style="fill:#121212;fill-opacity:1"></g>
  <g
   id="g857"
   style="fill:#121212;fill-opacity:1"></g>
  <g
   id="g859"
   style="fill:#121212;fill-opacity:1"></g>
  <g
   id="g861"
   style="fill:#121212;fill-opacity:1"></g>
  <g
   id="g863"
   style="fill:#121212;fill-opacity:1"></g>
  <g
   id="g865"
   style="fill:#121212;fill-opacity:1"></g>
  <g
   id="g867"
   style="fill:#121212;fill-opacity:1"></g>
  <g
   id="g869"
   style="fill:#121212;fill-opacity:1"></g>
  <g
   id="g871"
   style="fill:#121212;fill-opacity:1"></g>
  <g
   id="g873"
   style="fill:#121212;fill-opacity:1"></g>
  <g
   id="g875"
   style="fill:#121212;fill-opacity:1"></g>
  <g
   id="g877"
   style="fill:#121212;fill-opacity:1"></g>
  <g
   id="g879"
   style="fill:#121212;fill-opacity:1"></g>
  <g
   id="g881"
   style="fill:#121212;fill-opacity:1"></g>
</svg>
