<?xml version="1.0" encoding="UTF-8" standalone="no"?>
<svg
   id="svg2"
   version="1.1"
   inkscape:version="1.2-dev (9ee32be, 2021-06-19)"
   width="450"
   height="450"
   sodipodi:docname="chromium.svg"
   viewBox="0 0 450 450"
   xmlns:inkscape="http://www.inkscape.org/namespaces/inkscape"
   xmlns:sodipodi="http://sodipodi.sourceforge.net/DTD/sodipodi-0.dtd"
   xmlns="http://www.w3.org/2000/svg"
   xmlns:svg="http://www.w3.org/2000/svg"
   xmlns:rdf="http://www.w3.org/1999/02/22-rdf-syntax-ns#"
   xmlns:cc="http://creativecommons.org/ns#"
   xmlns:dc="http://purl.org/dc/elements/1.1/">
  <metadata
     id="metadata8">
    <rdf:RDF>
      <cc:Work
         rdf:about="">
        <dc:format>image/svg+xml</dc:format>
        <dc:type
           rdf:resource="http://purl.org/dc/dcmitype/StillImage" />
      </cc:Work>
    </rdf:RDF>
  </metadata>
  <defs
     id="defs6">
    <clipPath
       id="clipPath3947"
       clipPathUnits="userSpaceOnUse">
      <ellipse
         ry="212.23589"
         rx="203.24309"
         cy="256.47083"
         cx="256.52075"
         id="ellipse3949"
         style="opacity:1;fill:#ffc82d;fill-opacity:1;stroke:none;stroke-width:0;stroke-linecap:butt;stroke-linejoin:miter;stroke-miterlimit:4;stroke-dasharray:none;stroke-dashoffset:0;stroke-opacity:1" />
    </clipPath>
    <clipPath
       id="clipPath4806"
       clipPathUnits="userSpaceOnUse">
      <circle
         r="211.62711"
         cy="248.91539"
         cx="249.4608"
         id="circle4808"
         style="opacity:1;fill:#f6c439;fill-opacity:1;stroke:none;stroke-width:0;stroke-linecap:butt;stroke-linejoin:miter;stroke-miterlimit:4;stroke-dasharray:none;stroke-dashoffset:0;stroke-opacity:1" />
    </clipPath>
    <clipPath
       id="clipPath4837"
       clipPathUnits="userSpaceOnUse">
      <circle
         r="207.13615"
         cy="256"
         cx="256"
         id="circle4839"
         style="opacity:1;fill:#0fa15f;fill-opacity:1;stroke:none;stroke-width:0;stroke-linecap:butt;stroke-linejoin:miter;stroke-miterlimit:4;stroke-dasharray:none;stroke-dashoffset:0;stroke-opacity:1" />
    </clipPath>
    <clipPath
       id="clipPath5050"
       clipPathUnits="userSpaceOnUse">
      <path
         inkscape:connector-curvature="0"
         id="path5052"
         d="M 255.99999,45.26758 A 210.73167,210.73167 0 0 0 45.267565,256 210.73167,210.73167 0 0 0 255.99999,466.73242 210.73167,210.73167 0 0 0 466.73244,256 210.73167,210.73167 0 0 0 255.99999,45.26758 Z m 0,111.84375 A 98.888542,98.888542 0 0 1 354.88866,256 98.888542,98.888542 0 0 1 255.99999,354.88867 98.888542,98.888542 0 0 1 157.11132,256 98.888542,98.888542 0 0 1 255.99999,157.11133 Z"
         style="opacity:1;fill:#f9f9f9;fill-opacity:1;stroke:none;stroke-width:0;stroke-linecap:butt;stroke-linejoin:miter;stroke-miterlimit:4;stroke-dasharray:none;stroke-dashoffset:0;stroke-opacity:1" />
    </clipPath>
    <clipPath
       id="clipPath5127"
       clipPathUnits="userSpaceOnUse">
      <path
         inkscape:connector-curvature="0"
         id="path5129"
         d="M 255.99999,45.26758 A 210.73167,210.73167 0 0 0 45.26756,256 210.73167,210.73167 0 0 0 255.99999,466.73242 210.73167,210.73167 0 0 0 466.73244,256 210.73167,210.73167 0 0 0 255.99999,45.26758 Z m 0,111.84375 A 98.888542,98.888542 0 0 1 354.88864,256 98.888542,98.888542 0 0 1 255.99999,354.88867 98.888542,98.888542 0 0 1 157.11132,256 98.888542,98.888542 0 0 1 255.99999,157.11133 Z"
         style="opacity:1;fill:#f9f9f9;fill-opacity:1;stroke:none;stroke-width:0;stroke-linecap:butt;stroke-linejoin:miter;stroke-miterlimit:4;stroke-dasharray:none;stroke-dashoffset:0;stroke-opacity:1" />
    </clipPath>
  </defs>
  <sodipodi:namedview
     pagecolor="#ffffff"
     bordercolor="#666666"
     borderopacity="1"
     objecttolerance="10"
     gridtolerance="10"
     guidetolerance="10"
     inkscape:pageopacity="0"
     inkscape:pageshadow="2"
     inkscape:window-width="1792"
     inkscape:window-height="1067"
     id="namedview4"
     showgrid="false"
     inkscape:zoom="0.7653989"
     inkscape:cx="325.32056"
     inkscape:cy="225.37268"
     inkscape:window-x="0"
     inkscape:window-y="25"
     inkscape:window-maximized="1"
     inkscape:current-layer="svg2"
     inkscape:document-units="px"
     inkscape:document-rotation="0"
     inkscape:pagecheckerboard="0"
     fit-margin-top="0"
     fit-margin-left="0"
     fit-margin-right="0"
     fit-margin-bottom="0" />
  <path
     style="opacity:1;fill:#91b0e8;fill-opacity:1;stroke:none;stroke-width:0;stroke-linecap:butt;stroke-linejoin:miter;stroke-miterlimit:4;stroke-dasharray:none;stroke-dashoffset:0;stroke-opacity:1"
     d="m 424.38343,120.67358 c -315.14389,251.77256 -157.57195,125.88628 0,0 z m 0,0 -182.15835,0.0709 c 50.16028,8.2262 88.43552,51.76739 88.43598,104.25553 -0.0369,25.81373 -9.52228,50.72096 -26.66551,70.02016 l -90.33991,154.69625 c 3.75834,0.18663 7.53969,0.28361 11.34436,0.2836 124.26425,4.4e-4 225.00044,-100.73575 225,-225 1.4e-4,-37.65523 -9.26487,-73.14043 -25.61657,-104.32643 z"
     id="path4797"
     inkscape:connector-curvature="0"
     sodipodi:nodetypes="cccccccssc" />
  <path
     style="fill:#396bd7;fill-opacity:1;stroke-width:1.19056"
     clip-path="none"
     d="M 225,0 C 144.10717,-2.8799853e-4 73.19611,42.695974 33.543022,106.77465 l 87.802038,138.27611 c 0.40731,6.58122 -2.00129,-19.57801 -2.00612,-20.05075 5.1e-4,-58.35478 47.30628,-105.66055 105.66106,-105.66106 5.47864,0.0439 16.79301,1.14833 22.19877,2.04005 l 177.18466,-0.70542 C 386.77367,48.944193 311.60901,-3.0999853e-4 225,0 Z M 33.515913,106.81844 c -54.565551,261.00932 -27.28277,130.50467 0,0 z"
     id="path3923"
     inkscape:connector-curvature="0"
     sodipodi:nodetypes="sccccccscc" />
  <path
     style="fill:#6199f6;fill-opacity:1;stroke-width:1.19056"
     clip-path="none"
     d="M 33.543022,106.77465 C 12.282672,141.13099 -1.5999844e-4,181.62861 0,225.00001 -4.2699844e-4,345.45959 94.66286,443.80723 213.65564,449.71641 L 303.99555,295.02017 C 283.97124,317.64935 255.21674,330.6227 225,330.66107 174.40869,330.61947 130.94586,294.72275 121.34506,245.05076 Z"
     id="path3923-1"
     inkscape:connector-curvature="0"
     sodipodi:nodetypes="csccccc" />
  <circle
     style="opacity:1;fill:#ffffff;fill-opacity:1;stroke:none;stroke-width:0;stroke-linecap:butt;stroke-linejoin:miter;stroke-miterlimit:4;stroke-dasharray:none;stroke-dashoffset:0;stroke-opacity:1"
     id="path4162"
     cx="225"
     cy="225"
     r="105.66199" />
  <circle
     style="opacity:1;fill:#4688f4;fill-opacity:1;stroke:none;stroke-width:0;stroke-linecap:butt;stroke-linejoin:miter;stroke-miterlimit:4;stroke-dasharray:none;stroke-dashoffset:0;stroke-opacity:1"
     id="path3956"
     cx="225"
     cy="225"
     clip-path="none"
     r="87.187675" />
  <path
     inkscape:connector-curvature="0"
     style="opacity:0.1;fill:#367100;fill-opacity:1;stroke:none;stroke-width:0;stroke-linecap:butt;stroke-linejoin:miter;stroke-miterlimit:4;stroke-dasharray:none;stroke-dashoffset:0;stroke-opacity:1"
     d="m 76.519531,145.27539 82.558589,129.43945 31.16747,-34.48226 z m 366.238279,12.96484 -165.96669,0.70953 16.34175,37.87768 149.62494,-38.58717 z m -167.4029,150.67233 -29.98186,157.57377 84.55468,-144.8086 z"
     id="rect5020-5-5"
     clip-path="url(#clipPath5127)"
     transform="matrix(1.0677047,0,0,1.0677047,-48.332409,-48.332409)"
     sodipodi:nodetypes="ccccccccccccc" />
</svg>
